<?xml version="1.0" encoding="iso-8859-1"?>
<!-- Generator: Adobe Illustrator 19.0.0, SVG Export Plug-In . SVG Version: 6.00 Build 0)  -->
<svg version="1.1" id="Capa_1" xmlns="http://www.w3.org/2000/svg" xmlns:xlink="http://www.w3.org/1999/xlink" x="0px" y="0px"
	 viewBox="0 0 512 512" fill="#2ee992" style="enable-background:new 0 0 512 512;" xml:space="preserve">
<g>
	<g>
		<path d="M286,150c57.897,0,105-47.103,105-105V0h-45c-38.151,0-71.612,20.455-90,50.971C237.612,20.455,204.151,0,166,0h-45v45
			c0,57.897,47.103,105,105,105h15v30h-90v30h30v37.133c-37.114,22.252-60,62.426-60,105.949v1.198c-0.001,0.042,0,0.084,0,0.126
			V512h270V353.082c0-43.445-22.821-83.658-60-105.949V210h30v-30h-90v-30H286z M346,30h15v15c0,39.159-30.172,71.385-68.486,74.699
			l34.093-34.093l-21.213-21.213l-34.093,34.093C274.615,60.172,306.841,30,346,30z M206.606,64.393l-21.213,21.213l34.093,34.093
			C181.172,116.385,151,84.159,151,45V30h15c39.159,0,71.385,30.172,74.699,68.486L206.606,64.393z M202.709,269.416l8.292-4.146
			V210H241v148.805c-7.317-1.802-14.404-4.869-20.93-9.22c-20.025-13.349-43.979-18.55-67.215-15.146
			C158.456,306.513,176.497,282.522,202.709,269.416z M361,482H151V365.341c17.854-4.389,36.865-1.17,52.429,9.206
			c16.197,10.799,34.756,16.197,53.321,16.196c18.56-0.001,37.127-5.4,53.32-16.196c15.067-10.044,33.512-13.391,50.93-9.554V482z
			 M301,210v55.271l8.292,4.146c26.151,13.075,44.171,36.985,49.816,64.827c-22.773-2.94-46.174,2.34-65.679,15.343
			c-6.971,4.648-14.581,7.841-22.429,9.58V210H301z"/>
	</g>
</g>
<g>
</g>
<g>
</g>
<g>
</g>
<g>
</g>
<g>
</g>
<g>
</g>
<g>
</g>
<g>
</g>
<g>
</g>
<g>
</g>
<g>
</g>
<g>
</g>
<g>
</g>
<g>
</g>
<g>
</g>
</svg>
